<svg width="356" height="75" viewBox="0 0 356 75" fill="none" xmlns="http://www.w3.org/2000/svg">
<path d="M105.149 0C85.9986 0 72.1196 13.1204 72.1196 31.3335C72.1196 49.5466 85.9986 62.667 105.149 62.667C124.298 62.667 138.178 49.5466 138.178 31.3335C138.178 13.1204 124.298 0 105.149 0ZM105.276 47.6187C96.5422 47.6187 89.4615 40.3271 89.4615 31.3312C89.4615 22.3367 96.5422 15.0451 105.276 15.0451C114.01 15.0451 121.089 22.3367 121.089 31.3312C121.089 40.3271 114.01 47.6187 105.276 47.6187Z" fill="white"/>
<path d="M355.274 60.5628H335.51L322.578 42.7258L309.529 60.5628H289.992L312.351 30.1297L291.944 2.10132H311.708L322.806 17.6314L333.858 2.10132H353.379L333.031 30.0172L355.274 60.5628Z" fill="white"/>
<path d="M0 60.5628V2.10132H17.2717L43.1716 35.6105V2.10132H59.9896V60.5628H43.0541L16.818 26.8865V60.5628H0Z" fill="white"/>
<path d="M198.593 53.6028C203.265 53.6028 207.738 55.4546 212.214 59.7786C196.639 58.3439 178.336 74.9325 164.059 74.9325C160.29 74.9325 156.855 73.6655 153.906 70.522C167.323 70.522 183.494 53.6028 198.593 53.6028Z" fill="white"/>
<path d="M167.013 61.5799C155.916 30.6708 149.6 11.8738 136.769 1.95341C139.761 1.55353 141.978 1.39185 144.692 1.39185C166.632 1.39185 168.436 13.252 178.603 48.4527C184.363 41.1542 191.705 26.5719 191.705 12.9136C191.705 7.14818 190.256 4.49341 188.018 2.10097C191.43 1.69881 194.65 1.37545 197.943 1.39321C206.608 1.43876 210.729 4.84865 210.729 13.917C210.729 28.8646 195.128 50.6998 186.768 58.2151L176.889 61.5799H167.013Z" fill="white"/>
<path d="M284.626 31.3331C284.626 13.6601 271.765 0.000488281 252.614 0.000488281C236.177 0.000488281 220.603 13.1209 220.603 31.3331C220.603 49.5462 234.482 62.6679 253.631 62.6679C266.561 62.6679 276.794 57.1075 281.623 51.5319L269.674 41.9745C265.86 45.3019 261.364 47.6183 254.098 47.6183C246.961 47.6183 240.483 43.9639 238.657 36.6613H284.176C284.449 34.9374 284.626 33.1699 284.626 31.3331ZM238.879 25.0061C240.497 19.0061 245.923 14.367 252.654 14.367C259.995 14.367 264.923 18.8654 266.561 25.0061H238.879Z" fill="white"/>
</svg>
