<svg width="399" height="64" viewBox="0 0 399 64" fill="none" xmlns="http://www.w3.org/2000/svg">
<path fill-rule="evenodd" clip-rule="evenodd" d="M42.786 2.07898V22.7993H18.393V2.07898H0.614258V60.5022H18.393V38.1509H42.786V60.5026H60.5643V2.07898H42.786ZM103.113 47.9775C94.3862 47.9775 87.3101 40.6918 87.3101 31.7005C87.3101 22.7132 94.3867 15.4253 103.113 15.4253C111.84 15.4253 118.917 22.7132 118.917 31.7005C118.916 40.6914 111.84 47.9775 103.113 47.9775ZM102.986 0.391113C83.8481 0.391113 69.9777 13.5015 69.9777 31.7023C69.9777 49.904 83.8481 63.0162 102.986 63.0162C122.123 63.0162 135.993 49.904 135.993 31.7023C135.993 13.5019 122.123 0.391113 102.986 0.391113ZM384.518 40.0993C382.49 44.9834 377.463 48.3942 372.293 48.3942C363.015 48.3942 356.279 41.4 356.279 31.7606C356.279 22.1203 363.015 15.1242 372.293 15.1242C377.463 15.1242 382.49 18.5368 384.518 23.4219L384.746 23.9707L399 17.2293L398.741 16.7128C395.029 9.29318 387.43 0.447133 372.294 0.447133C353.32 0.447133 339.55 13.6153 339.55 31.761C339.55 49.904 353.32 63.0745 372.294 63.0745C388.226 63.0745 395.703 52.8835 398.741 46.8089L399 46.2906L384.746 39.5514L384.518 40.0993ZM311.697 31.1038L339.617 60.5031H317.748L297.08 39.1V60.5031H279.669V2.07989H297.08V24.6124L316.715 2.07989H338.267L311.697 31.1038ZM234.986 0.446222C218.892 0.446222 211.508 10.6399 208.539 16.7164L208.286 17.2302L222.534 23.9698L222.761 23.421C224.477 19.2906 229.058 15.1233 235.431 15.1233C242.005 15.1233 247.053 18.3692 249.405 24.0636H229.276V38.5635H249.718C247.541 44.8231 242.375 48.3933 235.431 48.3933C229.058 48.3933 224.477 44.2279 222.761 40.0984L222.534 39.5496L208.282 46.2887L208.541 46.807C211.579 52.8822 219.053 63.0727 234.986 63.0727C253.959 63.0727 267.732 49.9022 267.732 31.7592C267.732 13.6144 253.96 0.446222 234.986 0.446222ZM177.19 24.0841H161.951V15.6343H177.19C179.866 15.6343 181.735 17.3545 181.735 19.8153C181.735 22.3685 179.908 24.0841 177.19 24.0841ZM161.951 37.7251H177.708C180.788 37.7251 182.858 39.5792 182.858 42.3364C182.858 45.182 180.885 46.9478 177.708 46.9478H161.951V37.7251ZM189.612 30.3278C194.669 28.342 197.941 23.3158 197.941 17.2384C197.941 9.93718 192.502 2.07944 180.556 2.07944H146.005V60.5026H181.594C187.043 60.5026 191.569 58.8384 194.686 55.6877C197.508 52.8353 199.064 48.8256 199.064 44.3991C199.064 37.8681 195.118 32.1682 189.612 30.3278Z" fill="white"/>
</svg>
